# xmcd
#
# Track frame offsets:
#	150
#	19801
#	41153
#	55622
#	75018
#	96252
#	111506
#	128305
#	144230
#	160455
#
# Disc length: 2349 seconds
# Revision: 0
# Processed by: cddbd v1.5.2PL0 Copyright (c) Steve Scherf et al.
# Submitted via: dBpowerAMP V12.0
#
DISCID=74092b0a
DTITLE=Cal Williams Jr and Kory Horwood - Winter Dove
DYEAR=2016
DGENRE=Blues
TTITLE0=I Can't Get Well No More
TTITLE1=World Of Stone
TTITLE2=Winter Dove
TTITLE3=Daniel In The Lions Den
TTITLE4=How Can A Poor Man
TTITLE5=I Can't Feel At Home
TTITLE6=Arkansas
TTITLE7=California
TTITLE8=Colours Of The Sun
TTITLE9=Man Of Constant Sorrow
EXTD=
EXTT0=
EXTT1=
EXTT2=
EXTT3=
EXTT4=
EXTT5=
EXTT6=
EXTT7=
EXTT8=
EXTT9=
PLAYORDER=
